{"title":"Los sin nombre / The Nameless (1999) BDRip-AVC MediaClub","uid":10092998,"size":1930874812,"categoryP":"video","categoryS":"hd___movies","magnet":"?xt=urn:btih:fba8545a516fcc4ae0d2744c80502d0c9f3f1845&amp;dn=Los+sin+nombre+%2F+The+Nameless+%281999%29+BDRip-AVC+MediaClub&amp;tr=udp%3A%2F%2Ftracker.openbittorrent.com%3A80&amp;tr=udp%3A%2F%2Fopen.demonii.com%3A1337&amp;tr=udp%3A%2F%2Ftracker.coppersurfer.tk%3A6969&amp;tr=udp%3A%2F%2Fexodus.desync.com%3A6969","seeders":4,"leechers":1,"uploader":"neni69","files":1,"time":1399237104,"description":" &lt;a href=&quot; http://mediaclub.tv/&quot; rel=&quot;nofollow&quot; target=&quot;_NEW&quot;&gt; http://mediaclub.tv/&lt;/a&gt;   Welcome to MediaClub\n\n===================================================================\n\nUnique ID                      : 195640946672006541813071000507480441430 (0x932F1364A3BC97A5BB130D8B31F28256)\nComplete name                  : E:MCBez.imeni.1999.x264.BDRip(AVC)-MediaClubBez.imeni.1999.x264.BDRip(AVC)-MediaClub.mkv\nFormat                         : Matroska\nFormat version                 : Version 4 / Version 2\nFile size                      : 1.80 GiB\nDuration                       : 1h 40mn\nOverall bit rate               : 2 573 Kbps\nMovie name                     : -= Release MediaClub =-\nEncoded date                   : UTC 2014-05-03 16:10:05\nWriting application            : mkvmerge v6.4.1 ('Omega Point') built on Sep 16 2013 22:05:10\nWriting library                : libebml v1.3.0 + libmatroska v1.4.1\nAttachment                     : Yes\n\nVideo\nID                             : 1\nFormat                         : AVC\nFormat/Info                    : Advanced Video Codec\nFormat profile                 : &lt;a class=&quot;__cf_email__&quot; href=&quot;/cdn-cgi/l/email-protection&quot; data-cfemail=&quot;83cbeae4ebc3cfb7adb2&quot;&gt;[email&amp;#160;protected]&lt;/a&gt;&lt;script cf-hash='f9e31' type=&quot;text/javascript&quot;&gt;\n/* &lt;![CDATA[ */!function(){try{var t=&quot;currentScript&quot;in document?document.currentScript:function(){for(var t=document.getElementsByTagName(&quot;script&quot;),e=t.length;e--;)if(t[e].getAttribute(&quot;cf-hash&quot;))return t[e]}();if(t&amp;&amp;t.previousSibling){var e,r,n,i,c=t.previousSibling,a=c.getAttribute(&quot;data-cfemail&quot;);if(a){for(e=&quot;&quot;,r=parseInt(a.substr(0,2),16),n=2;a.length-n;n+=2)i=parseInt(a.substr(n,2),16)^r,e+=String.fromCharCode(i);e=document.createTextNode(e),c.parentNode.replaceChild(e,c)}}}catch(u){}}();/* ]]&gt; */&lt;/script&gt;\nFormat settings, CABAC         : Yes\nFormat settings, ReFrames      : 10 frames\nCodec ID                       : V_MPEG4/ISO/AVC\nDuration                       : 1h 40mn\nBit rate                       : 1 740 Kbps\nWidth                          : 1 024 pixels\nHeight                         : 554 pixels\nDisplay aspect ratio           : 1.85:1\nFrame rate                     : 23.976 fps\nColor space                    : YUV\nChroma subsampling             : 4:2:0\nBit depth                      : 8 bits\nScan type                      : Progressive\nBits/(Pixel*Frame)             : 0.128\nStream size                    : 1.18 GiB (66%)\nTitle                          : Bez.imeni.1999.x264.BDRip(AVC)-neni\nWriting library                : x264 core 142 r2409+42 04be48a tMod [8-bit@4:2:0 X86_64]\nEncoding settings              : cabac=1 / ref=10 / deblock=1:-3:-3 / analyse=0x3:0x133 / me=tesa / subme=11 / psy=1 / fade_compensate=0.00 / psy_rd=1.00:0.20 / mixed_ref=1 / me_range=32 / chroma_me=1 / trellis=2 / 8x8dct=1 / cqm=0 / deadzone=21,11 / fast_pskip=0 / chroma_qp_offset=-3 / threads=9 / lookahead_threads=1 / sliced_threads=0 / nr=0 / decimate=0 / interlaced=0 / bluray_compat=0 / constrained_intra=0 / fgo=0 / bframes=8 / b_pyramid=2 / b_adapt=2 / b_bias=0 / direct=3 / weightb=1 / open_gop=0 / weightp=2 / keyint=240 / keyint_min=23 / scenecut=40 / intra_refresh=0 / rc=2pass / mbtree=0 / bitrate=1740 / ratetol=1.0 / qcomp=0.60 / qpmin=0:0:0 / qpmax=69:69:69 / qpstep=4 / cplxblur=20.0 / qblur=0.5 / ip_ratio=1.40 / pb_ratio=1.30 / aq=2:1.00 / aq-sensitivity=10.00 / aq-factor=1.00:1.00:1.00 / aq2=0 / aq3=0\nLanguage                       : English\nDefault                        : Yes\nForced                         : Yes\n\nAudio #1\nID                             : 2\nFormat                         : AC-3\nFormat/Info                    : Audio Coding 3\nMode extension                 : CM (complete main)\nFormat settings, Endianness    : Big\nCodec ID                       : A_AC3\nDuration                       : 1h 40mn\nBit rate mode                  : Constant\nBit rate                       : 384 Kbps\nChannel(s)                     : 6 channels\nChannel positions              : Front: L C R, Side: L R, LFE\nSampling rate                  : 48.0 KHz\nBit depth                      : 16 bits\nCompression mode               : Lossy\nStream size                    : 275 MiB (15%)\nTitle                          : MVO, R5\nLanguage                       : Russian\nDefault                        : Yes\nForced                         : Yes\n\nAudio #2\nID                             : 3\nFormat                         : AC-3\nFormat/Info                    : Audio Coding 3\nMode extension                 : CM (complete main)\nFormat settings, Endianness    : Big\nCodec ID                       : A_AC3\nDuration                       : 1h 40mn\nBit rate mode                  : Constant\nBit rate                       : 448 Kbps\nChannel(s)                     : 6 channels\nChannel positions              : Front: L C R, Side: L R, LFE\nSampling rate                  : 48.0 KHz\nBit depth                      : 16 bits\nCompression mode               : Lossy\nStream size                    : 321 MiB (17%)\nTitle                          : Original\nLanguage                       : Spanish\nDefault                        : No\nForced                         : No\n\nText #1\nID                             : 4\nFormat                         : UTF-8\nCodec ID                       : S_TEXT/UTF8\nCodec ID/Info                  : UTF-8 Plain Text\nLanguage                       : Russian\nDefault                        : No\nForced                         : No\n\nText #2\nID                             : 5\nFormat                         : UTF-8\nCodec ID                       : S_TEXT/UTF8\nCodec ID/Info                  : UTF-8 Plain Text\nLanguage                       : English\nDefault                        : No\nForced                         : No\n\nMenu\n00:00:00.000                   : :Chapter 01\n00:14:12.393                   : :Chapter 02\n00:24:09.322                   : :Chapter 03\n00:36:54.837                   : :Chapter 04\n00:47:37.896                   : :Chapter 05\n01:03:16.793                   : :Chapter 06\n01:10:06.744                   : :Chapter 07\n01:20:28.698                   : :Chapter 08","torrent":{"xt":"urn:btih:fba8545a516fcc4ae0d2744c80502d0c9f3f1845","amp;dn":"Los+sin+nombre+%2F+The+Nameless+%281999%29+BDRip-AVC+MediaClub","amp;tr":["udp%3A%2F%2Ftracker.openbittorrent.com%3A80","udp%3A%2F%2Fopen.demonii.com%3A1337","udp%3A%2F%2Ftracker.coppersurfer.tk%3A6969","udp%3A%2F%2Fexodus.desync.com%3A6969"],"infoHash":"fba8545a516fcc4ae0d2744c80502d0c9f3f1845","infoHashBuffer":{"type":"Buffer","data":[251,168,84,90,81,111,204,74,224,210,116,76,128,80,45,12,159,63,24,69]},"announce":[],"urlList":[]}}